<svg
   xmlns:dc="http://purl.org/dc/elements/1.1/"
   xmlns:cc="http://creativecommons.org/ns#"
   xmlns:rdf="http://www.w3.org/1999/02/22-rdf-syntax-ns#"
   xmlns:svg="http://www.w3.org/2000/svg"
   xmlns="http://www.w3.org/2000/svg"
   xmlns:sodipodi="http://sodipodi.sourceforge.net/DTD/sodipodi-0.dtd"
   xmlns:inkscape="http://www.inkscape.org/namespaces/inkscape"
   width="100.11089mm"
   height="79.607109mm"
   viewBox="0 0 100.11089 79.607109"
   version="1.1"
   id="svg8"
   inkscape:version="0.92.4 (5da689c313, 2019-01-14)"
   sodipodi:docname="superhelp_logo.svg"
   inkscape:export-filename="/home/g/projects/superhelp/superhelp/store/superhelp_logo.png"
   inkscape:export-xdpi="96"
   inkscape:export-ydpi="96">
  <defs
     id="defs2">
    <inkscape:path-effect
       effect="skeletal"
       id="path-effect4972"
       is_visible="true"
       pattern="m 60.80692,207.585 -0.62276,-0.0405 -0.15389,-0.6048 0.527651,-0.33326 0.479996,0.39885 z"
       copytype="repeated"
       prop_scale="1"
       scale_y_rel="false"
       spacing="0"
       normal_offset="0"
       tang_offset="0"
       prop_units="false"
       vertical_pattern="false"
       fuse_tolerance="0" />
    <inkscape:path-effect
       effect="skeletal"
       id="path-effect4944"
       is_visible="true"
       pattern="m 58.866112,205.1261 h 0.701582 v 0.66817 h -0.701582 z"
       copytype="single_stretched"
       prop_scale="1"
       scale_y_rel="false"
       spacing="0"
       normal_offset="0"
       tang_offset="0"
       prop_units="false"
       vertical_pattern="false"
       fuse_tolerance="0" />
    <inkscape:path-effect
       effect="skeletal"
       id="path-effect4907"
       is_visible="true"
       pattern="m 61.427734,769.66211 v 9.31641 h 7.748047 v -9.31641 z m 8.271485,0.0156 v 9.31446 h 7.748047 v -9.31446 z"
       copytype="repeated"
       prop_scale="1"
       scale_y_rel="false"
       spacing="0"
       normal_offset="0"
       tang_offset="0"
       prop_units="false"
       vertical_pattern="false"
       fuse_tolerance="0" />
    <inkscape:path-effect
       effect="skeletal"
       id="path-effect4889"
       is_visible="true"
       pattern="m 61.427734,769.66211 v 9.31641 h 7.748047 v -9.31641 z m 8.271485,0.0156 v 9.31446 h 7.748047 v -9.31446 z"
       copytype="repeated_stretched"
       prop_scale="1"
       scale_y_rel="false"
       spacing="0"
       normal_offset="0"
       tang_offset="0"
       prop_units="false"
       vertical_pattern="false"
       fuse_tolerance="0" />
    <inkscape:path-effect
       effect="skeletal"
       id="path-effect4861"
       is_visible="true"
       pattern="M 0,0 H 1"
       copytype="single_stretched"
       prop_scale="1"
       scale_y_rel="false"
       spacing="0"
       normal_offset="0"
       tang_offset="0"
       prop_units="false"
       vertical_pattern="false"
       fuse_tolerance="0" />
    <inkscape:path-effect
       effect="skeletal"
       id="path-effect4820"
       is_visible="true"
       pattern="m 61.427734,769.66211 v 9.31641 h 7.748047 v -9.31641 z m 8.271485,0.0156 v 9.31446 h 7.748047 v -9.31446 z"
       copytype="repeated_stretched"
       prop_scale="1"
       scale_y_rel="false"
       spacing="0"
       normal_offset="0"
       tang_offset="0"
       prop_units="false"
       vertical_pattern="false"
       fuse_tolerance="0" />
    <inkscape:path-effect
       effect="skeletal"
       id="path-effect4721"
       is_visible="true"
       pattern="m 61.427734,769.66211 v 9.31641 h 7.748047 v -9.31641 z m 8.271485,0.0156 v 9.31446 h 7.748047 v -9.31446 z"
       copytype="repeated"
       prop_scale="1"
       scale_y_rel="false"
       spacing="0.1"
       normal_offset="0"
       tang_offset="0"
       prop_units="false"
       vertical_pattern="false"
       fuse_tolerance="0" />
    <inkscape:path-effect
       effect="skeletal"
       id="path-effect4694"
       is_visible="true"
       pattern="M 0,0 H 1"
       copytype="single_stretched"
       prop_scale="1"
       scale_y_rel="false"
       spacing="0"
       normal_offset="0"
       tang_offset="0"
       prop_units="false"
       vertical_pattern="false"
       fuse_tolerance="0" />
    <inkscape:path-effect
       effect="skeletal"
       id="path-effect935"
       is_visible="true"
       pattern="M 0,0 H 1"
       copytype="single_stretched"
       prop_scale="1"
       scale_y_rel="false"
       spacing="0"
       normal_offset="0"
       tang_offset="0"
       prop_units="false"
       vertical_pattern="false"
       fuse_tolerance="0" />
  </defs>
  <sodipodi:namedview
     id="base"
     pagecolor="#ffffff"
     bordercolor="#666666"
     borderopacity="1.0"
     inkscape:pageopacity="1"
     inkscape:pageshadow="2"
     inkscape:zoom="1.979899"
     inkscape:cx="76.737316"
     inkscape:cy="121.00951"
     inkscape:document-units="mm"
     inkscape:current-layer="layer1"
     showgrid="false"
     inkscape:window-width="1869"
     inkscape:window-height="1056"
     inkscape:window-x="1971"
     inkscape:window-y="24"
     inkscape:window-maximized="1"
     fit-margin-top="0"
     fit-margin-left="0"
     fit-margin-right="0"
     fit-margin-bottom="0"
     inkscape:pagecheckerboard="false" />
  <metadata
     id="metadata5">
    <rdf:RDF>
      <cc:Work
         rdf:about="">
        <dc:format>image/svg+xml</dc:format>
        <dc:type
           rdf:resource="http://purl.org/dc/dcmitype/StillImage" />
        <dc:title />
      </cc:Work>
    </rdf:RDF>
  </metadata>
  <g
     inkscape:label="Layer 1"
     inkscape:groupmode="layer"
     id="layer1"
     transform="translate(-53.753912,-82.960833)">
    <g
       transform="translate(-57.326112,-175.59945)"
       id="g9171">
      <path
         inkscape:connector-curvature="0"
         id="path4991-3-6"
         transform="matrix(0.26458333,0,0,0.26458333,-8.3176424,-7.9183424)"
         d="m 591.57422,1011.6934 a 83.098512,82.305791 18.437406 0 0 -53.05664,20.1914 83.098512,82.305791 18.437406 0 0 -26.49805,78.3183 83.098512,82.305791 18.437406 0 0 54.18164,61.5059 l -0.0371,0.1113 123.08203,41.0332 -2.51171,7.6485 -123.47461,-41.1661 v 0 l -77.85938,-25.957 a 82.244946,81.781039 18.437412 0 0 -1.26562,38.1523 82.244946,81.781039 18.437412 0 0 54.88671,61.3047 l 0.004,-0.01 123.56055,41.1914 -0.008,0.021 a 82.216504,82.216504 0 0 0 0.46094,0.1309 l 0.33594,0.1113 0.006,-0.016 a 82.216504,82.216504 0 0 0 80.125,-16.7149 82.216504,82.216504 0 0 0 25.77344,-78.4648 82.216504,82.216504 0 0 0 -53.91602,-60.75 v 0 l -0.16992,-0.057 a 82.216504,82.216504 0 0 0 -1.30274,-0.4551 l -0.006,0.02 -121.01758,-40.3458 2.64843,-7.83 119.71485,39.9121 -0.002,0.01 78.07226,26.0293 c 3.44134,-12.4392 14.87561,-39.3166 12.27344,-51.9727 -5.95174,-28.611 -37.64693,-38.2382 -65.52734,-47.4199 -0.10692,-0.035 -0.21742,-0.072 -0.32422,-0.1074 l -121.63282,-40.5508 -0.0117,0.033 a 83.098512,82.305791 18.437406 0 0 -26.5039,-3.9062 z"
         style="fill:#0072aa;fill-opacity:1;stroke:none;stroke-width:32.70064163;stroke-miterlimit:4;stroke-dasharray:none;stroke-opacity:1" />
      <path
         transform="rotate(18.437412)"
         sodipodi:open="true"
         d="m 273.07885,208.13282 a 3.2002347,3.2002347 0 0 1 3.20327,-3.19481 3.2002347,3.2002347 0 0 1 3.1972,3.20089 3.2002347,3.2002347 0 0 1 -3.1985,3.19958 3.2002347,3.2002347 0 0 1 -3.20197,-3.19611"
         sodipodi:end="3.1403035"
         sodipodi:start="3.1432891"
         sodipodi:ry="3.2002347"
         sodipodi:rx="3.2002347"
         sodipodi:cy="208.13824"
         sodipodi:cx="276.27908"
         sodipodi:type="arc"
         id="path5097-9-2"
         style="fill:#ffffff;fill-opacity:1;stroke:none;stroke-width:6.38603258;stroke-miterlimit:4;stroke-dasharray:none;stroke-opacity:1" />
      <path
         transform="rotate(18.437412)"
         sodipodi:open="true"
         d="m 227.2124,219.8216 a 3.2002347,3.2002347 0 0 1 3.20327,-3.19481 3.2002347,3.2002347 0 0 1 3.19719,3.20089 3.2002347,3.2002347 0 0 1 -3.19849,3.19958 3.2002347,3.2002347 0 0 1 -3.20197,-3.19611"
         sodipodi:end="3.1403035"
         sodipodi:start="3.1432891"
         sodipodi:ry="3.2002347"
         sodipodi:rx="3.2002347"
         sodipodi:cy="219.82703"
         sodipodi:cx="230.41263"
         sodipodi:type="arc"
         id="path5097-0-7-8"
         style="fill:#ffffff;fill-opacity:1;stroke:none;stroke-width:6.38603258;stroke-miterlimit:4;stroke-dasharray:none;stroke-opacity:1" />
      <path
         transform="rotate(18.437412)"
         sodipodi:open="true"
         d="m 258.29068,242.97 a 3.2002347,3.2002347 0 0 1 3.20327,-3.1948 3.2002347,3.2002347 0 0 1 3.19719,3.20089 3.2002347,3.2002347 0 0 1 -3.1985,3.19958 3.2002347,3.2002347 0 0 1 -3.20197,-3.19611"
         sodipodi:end="3.1403035"
         sodipodi:start="3.1432891"
         sodipodi:ry="3.2002347"
         sodipodi:rx="3.2002347"
         sodipodi:cy="242.97543"
         sodipodi:cx="261.49091"
         sodipodi:type="arc"
         id="path5097-0-9-7-8"
         style="fill:#ffffff;fill-opacity:1;stroke:none;stroke-width:6.38603258;stroke-miterlimit:4;stroke-dasharray:none;stroke-opacity:1" />
    </g>
  </g>
</svg>
